Coordinates
version=1
nRows=32
nColumns=12
inDegrees=yes

Units are S.I. units (second, meters, Newtons, ...)
Angles are in degrees

endheader
time	SC_y	SC_z	SC_x	AC_y	AC_z	AC_x	GH_y	GH_z	GH_yy	EL_x	PS_y
       0.0              -50.99          7.893          54.71          37.69         -16.63          1.353          134.0          36.76         -53.79          66.96          55.65
   0.02942              -50.99          7.897          54.71          37.69         -16.62          1.354          133.9          36.76         -53.76          66.96          55.65
   0.05884              -50.98          7.902           54.7          37.69         -16.62          1.355          133.9          36.75         -53.74          66.97          55.65
   0.08825              -50.98          7.906           54.7          37.69         -16.62          1.356          133.9          36.74         -53.71          66.98          55.65
    0.1177              -50.98          7.911          54.69           37.7         -16.62          1.358          133.9          36.74         -53.68          66.99          55.64
    0.1471              -50.98          7.916          54.69           37.7         -16.61          1.359          133.8          36.73         -53.64          66.99          55.64
    0.1765              -50.97          7.922          54.68           37.7         -16.61           1.36          133.8          36.72         -53.61           67.0          55.63
    0.2059              -50.97          7.927          54.67           37.7         -16.61          1.362          133.8          36.71         -53.57          67.01          55.63
    0.2353              -50.97          7.934          54.66           37.7          -16.6          1.364          133.7           36.7         -53.53          67.02          55.63
    0.2648              -50.96           7.94          54.65          37.71          -16.6          1.366          133.7          36.69         -53.49          67.03          55.62
    0.2942              -50.96          7.948          54.64          37.71         -16.59          1.367          133.6          36.68         -53.44          67.04          55.62
    0.3236              -50.95          7.955          54.63          37.71         -16.59           1.37          133.6          36.67         -53.39          67.05          55.61
     0.353              -50.95          7.964          54.62          37.71         -16.58          1.372          133.5          36.65         -53.34          67.06          55.61
    0.3824              -50.94          7.973          54.61          37.72         -16.58          1.374          133.5          36.64         -53.28          67.08           55.6
    0.4119              -50.94          7.983           54.6          37.72         -16.57          1.377          133.4          36.63         -53.22          67.09          55.59
    0.4413              -50.93          7.993          54.58          37.72         -16.57           1.38          133.3          36.61         -53.15          67.11          55.59
    0.4707              -50.92          8.005          54.57          37.73         -16.56          1.383          133.2          36.59         -53.08          67.13          55.58
    0.5001              -50.91          8.017          54.55          37.73         -16.55          1.386          133.2          36.57          -53.0          67.15          55.57
    0.5295              -50.91          8.031          54.54          37.74         -16.54           1.39          133.1          36.55         -52.91          67.17          55.56
    0.5589               -50.9          8.046          54.52          37.74         -16.54          1.394          133.0          36.53         -52.82          67.19          55.55
    0.5884              -50.89          8.063          54.49          37.75         -16.53          1.398          132.9           36.5         -52.71          67.21          55.54
    0.6178              -50.88          8.081          54.47          37.75         -16.51          1.403          132.8          36.47          -52.6          67.24          55.53
    0.6472              -50.86          8.101          54.44          37.76          -16.5          1.409          132.6          36.44         -52.47          67.27          55.51
    0.6766              -50.85          8.123          54.42          37.77         -16.49          1.415          132.5          36.41         -52.33           67.3           55.5
     0.706              -50.84          8.148          54.38          37.78         -16.47          1.421          132.3          36.37         -52.17          67.34          55.48
    0.7355              -50.82          8.175          54.35          37.79         -16.46          1.429          132.1          36.33         -51.99          67.38          55.46
    0.7649               -50.8          8.206          54.31           37.8         -16.44          1.437          131.9          36.28          -51.8          67.43          55.44
    0.7943              -50.78          8.241          54.26          37.81         -16.42          1.446          131.7          36.23         -51.58          67.48          55.42
    0.8237              -50.76           8.28          54.21          37.82          -16.4          1.457          131.5          36.17         -51.33          67.54          55.39
    0.8531              -50.73          8.325          54.15          37.84         -16.37          1.469          131.2           36.1         -51.04          67.61          55.36
    0.8825               -50.7          8.375          54.09          37.86         -16.34          1.482          130.8          36.02         -50.72          67.69          55.33
     0.912              -50.66          8.434          54.01          37.88          -16.3          1.498          130.4          35.93         -50.35          67.77          55.29
